PathFileType	4	(X/Y/Z)	C:\Users\italobelli\Desktop\GitHub\PTbot_officialCBL\Personal_Results\SHRUG01_noisy2.trc
DataRate	CameraRate	NumFrames	NumMarkers	Units	OrigDataRate	OrigDataStartFrame	OrigNumFrames
110.888889	110.888889	17	9	m	110.888889	376	500
Frame#	Time		gu		centelbow		EpL		centpxt8		centijc7		ij		ts		aa		ai
			X1	Y1	Z1	X2	Y2	Z2	X3	Y3	Z3	X4	Y4	Z4	X5	Y5	Z5	X6	Y6	Z6	X7	Y7	Z7	X8	Y8	Z8	X9	Y9	Z9

376	3.3818	-0.080959	-0.01389	0.16487	-0.11559	-0.25854	0.1941	-0.093012	-0.2537	0.21669	-0.046816	-0.15316	-0.008669	-0.046816	0.031938	-0.008669	0	0	0	-0.1394	0.030398	0.053908	-0.10801	0.025478	0.16887	-0.16329	-0.080328	0.061121
377	3.3908	-0.081008	-0.013876	0.16486	-0.11575	-0.25852	0.19413	-0.093181	-0.25368	0.21672	-0.046816	-0.15316	-0.008669	-0.046816	0.031938	-0.008669	0	0	0	-0.13942	0.030409	0.053897	-0.10804	0.025497	0.16887	-0.1633	-0.080316	0.061114
378	3.3998	-0.081055	-0.013863	0.16486	-0.11592	-0.2585	0.19416	-0.093345	-0.25366	0.21675	-0.046816	-0.15316	-0.008669	-0.046816	0.031938	-0.008669	0	0	0	-0.13943	0.030419	0.053887	-0.10808	0.025515	0.16886	-0.16332	-0.080305	0.061108
379	3.4088	-0.081101	-0.013848	0.16485	-0.11607	-0.25848	0.1942	-0.093505	-0.25363	0.21678	-0.046816	-0.15316	-0.008669	-0.046816	0.031938	-0.008669	0	0	0	-0.13944	0.030429	0.053878	-0.10811	0.025533	0.16886	-0.16333	-0.080295	0.061103
380	3.4178	-0.081146	-0.013834	0.16485	-0.11622	-0.25847	0.19423	-0.09366	-0.25361	0.21682	-0.046816	-0.15316	-0.008669	-0.046816	0.031938	-0.008669	0	0	0	-0.13945	0.030438	0.053869	-0.10815	0.025551	0.16886	-0.16335	-0.080286	0.061099
381	3.4269	-0.08119	-0.01382	0.16485	-0.11637	-0.25845	0.19427	-0.093809	-0.2536	0.21685	-0.046816	-0.15316	-0.008669	-0.046816	0.031938	-0.008669	0	0	0	-0.13946	0.030446	0.05386	-0.10818	0.025569	0.16885	-0.16337	-0.080277	0.061095
382	3.4359	-0.081232	-0.013805	0.16484	-0.11651	-0.25844	0.1943	-0.093953	-0.25358	0.21688	-0.046816	-0.15316	-0.008669	-0.046816	0.031938	-0.008669	0	0	0	-0.13947	0.030453	0.053853	-0.10821	0.025586	0.16885	-0.16338	-0.08027	0.061093
383	3.4449	-0.081272	-0.01379	0.16484	-0.11664	-0.25842	0.19434	-0.094092	-0.25356	0.21692	-0.046816	-0.15316	-0.008669	-0.046816	0.031938	-0.008669	0	0	0	-0.13948	0.030459	0.053845	-0.10824	0.025603	0.16885	-0.1634	-0.080264	0.061091
384	3.4539	-0.081311	-0.013775	0.16484	-0.11677	-0.25841	0.19438	-0.094225	-0.25355	0.21695	-0.046816	-0.15316	-0.008669	-0.046816	0.031938	-0.008669	0	0	0	-0.13949	0.030464	0.053839	-0.10827	0.02562	0.16885	-0.16341	-0.080258	0.061091
385	3.4629	-0.081349	-0.013759	0.16483	-0.1169	-0.2584	0.19442	-0.094352	-0.25354	0.21699	-0.046816	-0.15316	-0.008669	-0.046816	0.031938	-0.008669	0	0	0	-0.1395	0.030468	0.053833	-0.1083	0.025636	0.16885	-0.16343	-0.080254	0.061091
386	3.4719	-0.081384	-0.013743	0.16483	-0.11701	-0.25839	0.19446	-0.094473	-0.25353	0.21703	-0.046816	-0.15316	-0.008669	-0.046816	0.031938	-0.008669	0	0	0	-0.13951	0.030471	0.053828	-0.10833	0.025652	0.16885	-0.16344	-0.080251	0.061092
387	3.481	-0.081418	-0.013727	0.16483	-0.11712	-0.25838	0.19451	-0.094588	-0.25352	0.21707	-0.046816	-0.15316	-0.008669	-0.046816	0.031938	-0.008669	0	0	0	-0.13952	0.030473	0.053823	-0.10835	0.025667	0.16885	-0.16346	-0.080249	0.061095
388	3.49	-0.081451	-0.013711	0.16482	-0.11722	-0.25838	0.19455	-0.094697	-0.25351	0.21711	-0.046816	-0.15316	-0.008669	-0.046816	0.031938	-0.008669	0	0	0	-0.13953	0.030473	0.053819	-0.10838	0.025682	0.16885	-0.16347	-0.080248	0.061098
389	3.499	-0.081481	-0.013694	0.16482	-0.11732	-0.25837	0.19459	-0.094798	-0.25351	0.21715	-0.046816	-0.15316	-0.008669	-0.046816	0.031938	-0.008669	0	0	0	-0.13954	0.030473	0.053816	-0.10841	0.025696	0.16885	-0.16349	-0.080249	0.061102
390	3.508	-0.08151	-0.013677	0.16482	-0.11741	-0.25837	0.19464	-0.094892	-0.25351	0.21719	-0.046816	-0.15316	-0.008669	-0.046816	0.031938	-0.008669	0	0	0	-0.13955	0.030472	0.053814	-0.10843	0.02571	0.16885	-0.1635	-0.08025	0.061108
391	3.517	-0.081538	-0.01366	0.16482	-0.11749	-0.25837	0.19469	-0.094976	-0.25351	0.21724	-0.046816	-0.15316	-0.008669	-0.046816	0.031938	-0.008669	0	0	0	-0.13956	0.03047	0.053812	-0.10846	0.025724	0.16885	-0.16352	-0.080252	0.061114
392	3.5261	-0.081566	-0.013642	0.16481	-0.11756	-0.25837	0.19475	-0.095052	-0.25352	0.21729	-0.046816	-0.15316	-0.008669	-0.046816	0.031938	-0.008669	0	0	0	-0.13957	0.030468	0.05381	-0.10848	0.025737	0.16886	-0.16353	-0.080254	0.061121
